<svg xmlns="http://www.w3.org/2000/svg" viewBox="0 0 34.93 29.53"><defs><style>.cls-1{fill:#41b649;}</style></defs><g id="레이어_2" data-name="레이어 2"><g id="Layer_3" data-name="Layer 3"><path class="cls-1" d="M19.6,11.42a1.46,1.46,0,1,0,1.46,1.46A1.45,1.45,0,0,0,19.6,11.42Z"/><path class="cls-1" d="M27.57,11.53a1.35,1.35,0,1,0,1.35,1.35A1.34,1.34,0,0,0,27.57,11.53Z"/><path class="cls-1" d="M28.85,0H6.08A6.08,6.08,0,0,0,0,6.08V17.87A6.08,6.08,0,0,0,6.08,24h8.56l2.82,5.58L20.66,24h8.19a6.08,6.08,0,0,0,6.08-6.08V6.08A6.08,6.08,0,0,0,28.85,0ZM7.54,16.14a3.23,3.23,0,0,1-1.69-.47v.42H3.57V6.85H5.85V9.9a3.31,3.31,0,0,1,1.69-.46,3.35,3.35,0,0,1,0,6.7ZM14.64,10v6.17H12.46V10c0-1.34-.85-1.34-.85-1.34V6.85a2.75,2.75,0,0,1,2.92,2.23,3.83,3.83,0,0,1,.11.88Zm5,6.44a3.54,3.54,0,1,1,3.54-3.53A3.54,3.54,0,0,1,19.6,16.41Zm7.64,2.91V17.54s2,.23,2-.9V15.7a3.32,3.32,0,0,1-1.66.45,3.28,3.28,0,0,1,0-6.55,3.32,3.32,0,0,1,1.66.45V9.77h2.11v6.87S31.81,19.32,27.24,19.32Z"/><path class="cls-1" d="M7.3,11.43a1.36,1.36,0,1,0,1.36,1.36A1.37,1.37,0,0,0,7.3,11.43Z"/></g></g></svg>