<svg xmlns="http://www.w3.org/2000/svg" viewBox="0 0 35.23 32.24"><defs><style>.cls-1{fill:#3c1d1d;}</style></defs><g id="레이어_2" data-name="레이어 2"><g id="Layer_3" data-name="Layer 3"><polygon class="cls-1" points="12.97 15.2 14.04 15.2 13.51 14.03 12.97 15.2"/><path class="cls-1" d="M17.62,0C7.89,0,0,6.23,0,13.92c0,4.56,2.79,8.61,7.09,11.15.91.54.12,1.86.12,1.86L3.67,31.56a.52.52,0,0,0,.13.53.47.47,0,0,0,.66,0A23.59,23.59,0,0,0,9.67,30.2a41.61,41.61,0,0,0,4.77-2.6,22.25,22.25,0,0,0,3.18.23c9.72,0,17.61-6.23,17.61-13.91S27.34,0,17.62,0ZM8.7,17.9h0V18a1.24,1.24,0,0,1-2.48,0V17.9h0V12H4.56a1.13,1.13,0,0,1,0-2.26h5.53a1.14,1.14,0,0,1,0,2.27H8.7Zm21.78,1.24a1.25,1.25,0,0,1-1-.49h0l-2.15-2.92-.46.46v1.75a1.24,1.24,0,0,1-2.4.42,1.06,1.06,0,0,1-1,.82v0H18.82v0a1.25,1.25,0,0,1-1-.75.69.69,0,0,1-.05.13,1.23,1.23,0,0,1-1.09.65h-.23l-.17-.05h0l-.17-.07h0l-.16-.1h0a.86.86,0,0,1-.14-.13h0a1.18,1.18,0,0,1-.28-.53L15,17.38H12l-.41.88A1.24,1.24,0,0,1,9.12,18a1.13,1.13,0,0,1,.09-.45h0a.47.47,0,0,1,0-.1l3-6.61a1.24,1.24,0,0,1,1.22-1h0a1.25,1.25,0,0,1,1.22,1l2.95,6.48v-6h0a.76.76,0,0,1,0-.15,1.24,1.24,0,1,1,2.48,0c0,.05,0,.1,0,.15h0v5.8h3.27a1,1,0,0,1,.95.6V11.12a1.24,1.24,0,0,1,2.48,0v1.56l2.38-2.38a1.24,1.24,0,0,1,2.17.82,1.27,1.27,0,0,1-.31.83h0l0,0L31,12,29.11,14l2.34,3.16h0a1.27,1.27,0,0,1,.27.78A1.23,1.23,0,0,1,30.48,19.14Z"/><path class="cls-1" d="M17.88,17.84a.28.28,0,0,0,0-.09v0l0-.1h0a.36.36,0,0,0,0-.11h0l-.05-.1-.05-.13v.28h.06a1.23,1.23,0,0,0-.06.39,1.28,1.28,0,0,0,.09.48,1.23,1.23,0,0,0,.1-.46A.49.49,0,0,0,17.88,17.84Z"/><path class="cls-1" d="M24.4,17.66v.28a1.16,1.16,0,0,0,.08.42,1,1,0,0,0,0-.24A1,1,0,0,0,24.4,17.66Z"/></g></g></svg>