<svg xmlns="http://www.w3.org/2000/svg" viewBox="0 0 29.71 24.49"><defs><style>.cls-1{fill:#29ade3;}</style></defs><g id="레이어_2" data-name="레이어 2"><g id="Layer_3" data-name="Layer 3"><path class="cls-1" d="M28.84.55S26,2.17,25.11,1.9A7.15,7.15,0,0,0,20.57,0a6.1,6.1,0,0,0-6,6.25,2.34,2.34,0,0,0,.15,1.18S7.55,8.15,2,1.21a5.94,5.94,0,0,0,1.84,8,2.67,2.67,0,0,1-2.67-.55s-.28,4.46,4.86,6a4.46,4.46,0,0,1-2.67.24A5.7,5.7,0,0,0,9,19S5.86,22.08,0,21.6c0,0,9.77,7.6,21.35-1.87,0,0,5.39-4.63,5.36-13.68a10.43,10.43,0,0,0,3-3,4.23,4.23,0,0,1-3.36.69S28.72,2.08,28.84.55Z"/></g></g></svg>